<?xml version="1.0" encoding="UTF-8"?>
<svg width="234px" height="30px" viewBox="0 0 234 30" version="1.1" xmlns="http://www.w3.org/2000/svg" xmlns:xlink="http://www.w3.org/1999/xlink">
    <!-- Generator: Sketch 47.1 (45422) - http://www.bohemiancoding.com/sketch -->
    <title>Group 2</title>
    <desc>Created with Sketch.</desc>
    <defs></defs>
    <g id="Symbols" stroke="none" stroke-width="1" fill="none" fill-rule="evenodd">
        <g id="Illustration_Installation_complete" transform="translate(0.000000, -204.000000)" fill-rule="nonzero" fill="#CFD7E6">
            <g id="Group">
                <g id="Group-2" transform="translate(0.000000, 204.000000)">
                    <path d="M27.1346705,6 L2.86532951,6 C1.27984718,6 0,4.66 0,3 C0,1.34 1.27984718,0 2.86532951,0 L27.1346705,0 C28.7201528,0 30,1.34 30,3 C30,4.66 28.7106017,6 27.1346705,6 Z" id="Shape"></path>
                    <path d="M209.065128,6 L36.9348722,6 C35.3109096,6 34,4.66 34,3 C34,1.34 35.3109096,0 36.9348722,0 L209.065128,0 C210.68909,0 212,1.34 212,3 C212,4.66 210.679308,6 209.065128,6 Z" id="Shape"></path>
                    <path d="M231.163866,6 L218.836134,6 C217.266807,6 216,4.66 216,3 C216,1.34 217.266807,0 218.836134,0 L231.163866,0 C232.733193,0 234,1.34 234,3 C234,4.66 232.733193,6 231.163866,6 Z" id="Shape"></path>
                    <path d="M163.050209,14 L74.9497908,14 C73.3175732,14 72,12.66 72,11 C72,9.34 73.3175732,8 74.9497908,8 L163.050209,8 C164.682427,8 166,9.34 166,11 C166,12.66 164.682427,14 163.050209,14 Z" id="Shape"></path>
                    <path d="M116.085714,23 L87.9142857,23 C86.3017143,23 85,21.66 85,20 C85,18.34 86.3017143,17 87.9142857,17 L116.085714,17 C117.698286,17 119,18.34 119,20 C119,21.66 117.698286,23 116.085714,23 Z" id="Shape"></path>
                    <path d="M159.066934,23 L125.933066,23 C124.310103,23 123,21.66 123,20 C123,18.34 124.310103,17 125.933066,17 L159.066934,17 C160.689897,17 162,18.34 162,20 C162,21.66 160.68012,23 159.066934,23 Z" id="Shape"></path>
                    <path d="M129.054698,30 L99.9453015,30 C98.315568,30 97,28.66 97,27 C97,25.34 98.315568,24 99.9453015,24 L129.054698,24 C130.684432,24 132,25.34 132,27 C132,28.66 130.674614,30 129.054698,30 Z" id="Shape"></path>
                </g>
            </g>
        </g>
    </g>
</svg>