<?xml version="1.0" encoding="UTF-8"?>
<svg width="179px" height="200px" viewBox="0 0 179 200" version="1.1" xmlns="http://www.w3.org/2000/svg" xmlns:xlink="http://www.w3.org/1999/xlink">
    <!-- Generator: Sketch 47.1 (45422) - http://www.bohemiancoding.com/sketch -->
    <title>Group 3</title>
    <desc>Created with Sketch.</desc>
    <defs></defs>
    <g id="Symbols" stroke="none" stroke-width="1" fill="none" fill-rule="evenodd">
        <g id="Illustration_Installation_complete" transform="translate(-28.000000, 0.000000)" fill-rule="nonzero">
            <g id="Group">
                <g id="Group-3" transform="translate(28.000000, 0.000000)">
                    <g id="Group" transform="translate(148.000000, 83.000000)" fill="#EEF1F6">
                        <path d="M6.1248,11.9136 C4.8,11.9136 3.7248,10.8384 3.7248,9.5136 L3.7248,3.2064 C3.7248,1.8816 4.8,0.8064 6.1248,0.8064 C7.4496,0.8064 8.5248,1.8816 8.5248,3.2064 L8.5248,9.5232 C8.5248,10.848 7.4496,11.9136 6.1248,11.9136 Z" id="Shape"></path>
                        <path d="M9.2832,8.7648 L2.9664,8.7648 C1.6416,8.7648 0.5664,7.6896 0.5664,6.3648 C0.5664,5.04 1.6416,3.9648 2.9664,3.9648 L9.2832,3.9648 C10.608,3.9648 11.6832,5.04 11.6832,6.3648 C11.6832,7.6896 10.608,8.7648 9.2832,8.7648 Z" id="Shape"></path>
                    </g>
                    <g id="Group" transform="translate(166.000000, 51.000000)" fill="#EEF1F6">
                        <path d="M5.5968,11.2992 C4.272,11.2992 3.1968,10.224 3.1968,8.8992 L3.1968,2.592 C3.1968,1.2672 4.272,0.192 5.5968,0.192 C6.9216,0.192 7.9968,1.2672 7.9968,2.592 L7.9968,8.9088 C7.9968,10.2336 6.9216,11.2992 5.5968,11.2992 Z" id="Shape"></path>
                        <path d="M8.7552,8.1408 L2.4384,8.1408 C1.1136,8.1408 0.0384,7.0656 0.0384,5.7408 C0.0384,4.416 1.1136,3.3408 2.4384,3.3408 L8.7552,3.3408 C10.08,3.3408 11.1552,4.416 11.1552,5.7408 C11.1552,7.0656 10.08,8.1408 8.7552,8.1408 Z" id="Shape"></path>
                    </g>
                    <g id="Group" transform="translate(12.000000, 149.000000)" fill="#EEF1F6">
                        <path d="M5.7792,11.7408 C4.4544,11.7408 3.3792,10.6656 3.3792,9.3408 L3.3792,3.024 C3.3792,1.6992 4.4544,0.624 5.7792,0.624 C7.104,0.624 8.1792,1.6992 8.1792,3.024 L8.1792,9.3408 C8.1792,10.6656 7.104,11.7408 5.7792,11.7408 Z" id="Shape"></path>
                        <path d="M8.9376,8.5824 L2.6208,8.5824 C1.296,8.5824 0.2208,7.5072 0.2208,6.1824 C0.2208,4.8576 1.296,3.7824 2.6208,3.7824 L8.9376,3.7824 C10.2624,3.7824 11.3376,4.8576 11.3376,6.1824 C11.3376,7.5072 10.2624,8.5824 8.9376,8.5824 Z" id="Shape"></path>
                    </g>
                    <g id="Group" transform="translate(2.000000, 22.000000)" fill="#EEF1F6">
                        <path d="M6.2496,11.1072 C4.9248,11.1072 3.8496,10.032 3.8496,8.7072 L3.8496,2.4 C3.8496,1.0752 4.9248,0 6.2496,0 C7.5744,0 8.6496,1.0752 8.6496,2.4 L8.6496,8.7168 C8.6496,10.0416 7.5744,11.1072 6.2496,11.1072 Z" id="Shape"></path>
                        <path d="M9.408,7.9488 L3.0912,7.9488 C1.7664,7.9488 0.6912,6.8736 0.6912,5.5488 C0.6912,4.224 1.7664,3.1488 3.0912,3.1488 L9.408,3.1488 C10.7328,3.1488 11.808,4.224 11.808,5.5488 C11.808,6.8736 10.7328,7.9488 9.408,7.9488 Z" id="Shape"></path>
                    </g>
                    <g id="Group" transform="translate(126.000000, 30.000000)" fill="#EEF1F6">
                        <path d="M4.35085714,6.608 C3.49714286,6.608 2.808,5.98266667 2.808,5.208 L2.808,1.53066667 C2.808,0.756 3.49714286,0.130666667 4.35085714,0.130666667 C5.20457143,0.130666667 5.89371429,0.756 5.89371429,1.53066667 L5.89371429,5.21733333 C5.89371429,5.98266667 5.20457143,6.608 4.35085714,6.608 Z" id="Shape"></path>
                        <path d="M6.38742857,4.76933333 L2.32457143,4.76933333 C1.47085714,4.76933333 0.781714286,4.144 0.781714286,3.36933333 C0.781714286,2.59466667 1.47085714,1.96933333 2.32457143,1.96933333 L6.38742857,1.96933333 C7.24114286,1.96933333 7.93028571,2.59466667 7.93028571,3.36933333 C7.93028571,4.144 7.24114286,4.76933333 6.38742857,4.76933333 Z" id="Shape"></path>
                    </g>
                    <g id="Group" transform="translate(40.000000, 5.000000)" fill="#EEF1F6">
                        <path d="M3.59333333,7.88914286 C2.81866667,7.88914286 2.19333333,7.2 2.19333333,6.34628571 L2.19333333,2.28342857 C2.19333333,1.42971429 2.81866667,0.740571429 3.59333333,0.740571429 C4.368,0.740571429 4.99333333,1.42971429 4.99333333,2.28342857 L4.99333333,6.34628571 C4.99333333,7.2 4.368,7.88914286 3.59333333,7.88914286 Z" id="Shape"></path>
                        <path d="M5.432,5.86285714 L1.75466667,5.86285714 C0.98,5.86285714 0.354666667,5.17371429 0.354666667,4.32 C0.354666667,3.46628571 0.98,2.77714286 1.75466667,2.77714286 L5.44133333,2.77714286 C6.216,2.77714286 6.84133333,3.46628571 6.84133333,4.32 C6.84133333,5.17371429 6.20666667,5.86285714 5.432,5.86285714 Z" id="Shape"></path>
                    </g>
                    <g id="Group" transform="translate(29.000000, 46.000000)" fill="#EEF1F6">
                        <path d="M3.74171429,7.14628571 C2.888,7.14628571 2.19885714,6.45714286 2.19885714,5.60342857 L2.19885714,1.55085714 C2.19885714,0.697142857 2.888,0.008 3.74171429,0.008 C4.59542857,0.008 5.28457143,0.697142857 5.28457143,1.55085714 L5.28457143,5.61371429 C5.28457143,6.45714286 4.59542857,7.14628571 3.74171429,7.14628571 Z" id="Shape"></path>
                        <path d="M5.768,5.12 L1.71542857,5.12 C0.861714286,5.12 0.172571429,4.43085714 0.172571429,3.57714286 C0.172571429,2.72342857 0.861714286,2.03428571 1.71542857,2.03428571 L5.77828571,2.03428571 C6.632,2.03428571 7.32114286,2.72342857 7.32114286,3.57714286 C7.32114286,4.43085714 6.62171429,5.12 5.768,5.12 Z" id="Shape"></path>
                    </g>
                    <g id="Group" transform="translate(0.000000, 115.000000)" fill="#EEF1F6">
                        <path d="M3.5,7.83771429 C2.72533333,7.83771429 2.1,7.14857143 2.1,6.29485714 L2.1,2.232 C2.1,1.37828571 2.72533333,0.689142857 3.5,0.689142857 C4.27466667,0.689142857 4.9,1.37828571 4.9,2.232 L4.9,6.29485714 C4.9,7.15885714 4.27466667,7.83771429 3.5,7.83771429 Z" id="Shape"></path>
                        <path d="M5.33866667,5.81142857 L1.652,5.81142857 C0.877333333,5.81142857 0.252,5.12228571 0.252,4.26857143 C0.252,3.41485714 0.877333333,2.72571429 1.652,2.72571429 L5.33866667,2.72571429 C6.11333333,2.72571429 6.73866667,3.41485714 6.73866667,4.26857143 C6.73866667,5.12228571 6.11333333,5.81142857 5.33866667,5.81142857 Z" id="Shape"></path>
                    </g>
                    <g id="Group" transform="translate(158.000000, 12.000000)" fill="#EEF1F6">
                        <path d="M3.5,6.72933333 C2.72533333,6.72933333 2.1,6.104 2.1,5.32933333 L2.1,1.652 C2.1,0.877333333 2.72533333,0.252 3.5,0.252 C4.27466667,0.252 4.9,0.877333333 4.9,1.652 L4.9,5.33866667 C4.9,6.11333333 4.27466667,6.72933333 3.5,6.72933333 Z" id="Shape"></path>
                        <path d="M5.33866667,4.89066667 L1.652,4.89066667 C0.877333333,4.89066667 0.252,4.26533333 0.252,3.49066667 C0.252,2.716 0.877333333,2.09066667 1.652,2.09066667 L5.33866667,2.09066667 C6.11333333,2.09066667 6.73866667,2.716 6.73866667,3.49066667 C6.73866667,4.26533333 6.11333333,4.89066667 5.33866667,4.89066667 Z" id="Shape"></path>
                    </g>
                    <g id="Group" transform="translate(163.000000, 138.000000)" fill="#EEF1F6">
                        <path d="M8.092,15.8227692 C6.47942857,15.8227692 5.17771429,14.5033846 5.17771429,12.8689231 L5.17771429,3.16061538 C5.17771429,1.52615385 6.47942857,0.206769231 8.092,0.206769231 C9.70457143,0.206769231 11.0062857,1.52615385 11.0062857,3.16061538 L11.0062857,12.8689231 C11.0062857,14.5033846 9.70457143,15.8227692 8.092,15.8227692 Z" id="Shape"></path>
                        <path d="M12.8908571,10.9686154 L3.30285714,10.9686154 C1.69028571,10.9686154 0.388571429,9.64923077 0.388571429,8.01476923 C0.388571429,6.38030769 1.69028571,5.06092308 3.30285714,5.06092308 L12.8908571,5.06092308 C14.5034286,5.06092308 15.8051429,6.38030769 15.8051429,8.01476923 C15.8051429,9.64923077 14.4937143,10.9686154 12.8908571,10.9686154 Z" id="Shape"></path>
                    </g>
                    <g id="Group" transform="translate(15.000000, 78.000000)" fill="#EEF1F6">
                        <path d="M8.20857143,15.6258462 C6.596,15.6258462 5.29428571,14.3064615 5.29428571,12.672 L5.29428571,2.96369231 C5.29428571,1.32923077 6.596,0.00984615385 8.20857143,0.00984615385 C9.82114286,0.00984615385 11.1228571,1.32923077 11.1228571,2.96369231 L11.1228571,12.672 C11.1228571,14.3064615 9.82114286,15.6258462 8.20857143,15.6258462 Z" id="Shape"></path>
                        <path d="M12.9977143,10.7716923 L3.41942857,10.7716923 C1.80685714,10.7716923 0.505142857,9.45230769 0.505142857,7.81784615 C0.505142857,6.18338462 1.80685714,4.864 3.41942857,4.864 L13.0074286,4.864 C14.62,4.864 15.9217143,6.18338462 15.9217143,7.81784615 C15.9217143,9.45230769 14.6102857,10.7716923 12.9977143,10.7716923 Z" id="Shape"></path>
                    </g>
                    <g id="Group" transform="translate(27.000000, 0.000000)" fill="#CFD7E6">
                        <path d="M101.882971,107.66144 C99.7008641,107.66144 97.9334563,105.904704 97.9334563,103.735772 C97.9334563,70.7012776 79.963165,8.71498258 64.0071262,8.71498258 C47.8239903,8.71498258 28.0467961,72.3304297 28.0467961,103.735772 C28.0467961,105.904704 26.2793883,107.66144 24.0972816,107.66144 C21.9151748,107.66144 20.147767,105.904704 20.147767,103.735772 C20.147767,73.9006969 39.1251845,0.863646922 64.0071262,0.863646922 C89.1556602,0.863646922 105.822612,74.0675377 105.822612,103.735772 C105.832485,105.904704 104.065078,107.66144 101.882971,107.66144 Z" id="Shape"></path>
                        <path d="M85.8084466,37.1368177 L40.1915534,37.1368177 C38.0094466,37.1368177 36.2420388,35.3800813 36.2420388,33.2111498 C36.2420388,31.0422184 38.0094466,29.285482 40.1915534,29.285482 L85.8084466,29.285482 C87.9905534,29.285482 89.7579612,31.0422184 89.7579612,33.2111498 C89.7579612,35.3800813 87.9806796,37.1368177 85.8084466,37.1368177 Z" id="Shape"></path>
                        <path d="M63,119.644541 C51.5661553,119.644541 42.2749223,110.399593 42.2749223,99.0347851 C42.2749223,89.2108014 50.3220583,65.921777 63.0098738,65.921777 C75.6976893,65.921777 83.7349515,89.2108014 83.7349515,99.0445993 C83.7250777,110.399593 74.4239709,119.644541 63,119.644541 Z M63,73.7731127 C57.589165,73.7731127 50.1640777,89.8879791 50.1640777,99.0347851 C50.1640777,106.071545 55.9204951,111.793206 62.9901262,111.793206 C70.0696311,111.793206 75.8260485,106.071545 75.8260485,99.0445993 C75.8260485,89.8879791 68.410835,73.7731127 63,73.7731127 Z" id="Shape"></path>
                        <path d="M62.9012621,199.021545 C60.9363786,199.021545 59.0801068,198.265854 57.6681553,196.901684 C57.0263592,196.273577 41.9490874,181.47381 41.9490874,165.319686 C41.9490874,163.150755 43.7164951,161.394019 45.8986019,161.394019 C48.0807087,161.394019 49.8481165,163.160569 49.8481165,165.319686 C49.8481165,178.205691 63.0394951,191.140767 63.1777282,191.278165 C66.3373398,187.705807 75.9544078,176.095645 75.9544078,165.319686 C75.9544078,163.150755 77.7218155,161.394019 79.9039223,161.394019 C82.0860291,161.394019 83.8534369,163.160569 83.8534369,165.319686 C83.8534369,181.59158 68.776165,196.283391 68.1343689,196.901684 C66.742165,198.256039 64.8760194,199.021545 62.9012621,199.021545 Z" id="Shape"></path>
                        <path d="M63,162.85633 C29.6759709,162.85633 26.388,160.167247 25.1833981,156.05511 C23.8800583,151.62892 28.3923786,148.753368 32.3813883,146.221312 C33.507,145.514692 35.3040291,144.366434 36.005068,143.708885 C36.4691359,142.060105 37.9995728,140.843148 39.8064757,140.843148 C41.9885825,140.843148 43.7559903,142.609698 43.7559903,144.768815 C43.7559903,148.301916 40.4581456,150.402149 36.6271165,152.836063 C36.2519126,153.061789 35.8075922,153.356214 35.3533981,153.650639 C39.1251845,154.28856 46.9156019,154.99518 62.9901262,154.99518 C79.0646505,154.99518 86.855068,154.298374 90.6268544,153.650639 C90.1726602,153.356214 89.7283398,153.061789 89.3531359,152.836063 C85.5319806,150.402149 82.2242621,148.301916 82.2242621,144.768815 C82.2242621,142.599884 83.9916699,140.843148 86.1737767,140.843148 C87.9806796,140.843148 89.5111165,142.060105 89.9751845,143.708885 C90.6762233,144.35662 92.4732524,145.514692 93.6087379,146.221312 C97.5878738,148.753368 102.110068,151.62892 100.806728,156.064925 C99.612,160.167247 96.3240291,162.85633 63,162.85633 Z" id="Shape"></path>
                        <path d="M6.56143689,151.962602 C4.86314563,151.962602 3.31296117,150.863415 2.79952427,149.20482 C-6.18562136,120.655401 14.3024854,89.1911731 23.5344757,77.0019744 C24.8476893,75.2746806 27.3260097,74.9311847 29.0637961,76.2168409 C30.8114563,77.5221254 31.1570388,79.985482 29.853699,81.7127758 C23.4949806,90.1235192 3.91526214,118.623868 9.49395146,143.699071 C19.2393786,142.4723 47.053835,139.15511 62.8222718,139.15511 C62.861767,139.15511 62.9012621,139.15511 62.9308835,139.15511 C78.9165437,139.15511 106.760621,142.4723 116.525796,143.699071 C122.055117,118.829965 102.74199,90.4866434 96.4721359,82.1151568 C95.1687961,80.3780488 95.5341262,77.9146922 97.2817864,76.6192218 C99.0294466,75.3237515 101.507767,75.6770616 102.811107,77.4239837 C111.914738,89.5739257 132.136252,120.881127 123.220223,149.195006 C122.647544,151.030256 120.76165,152.080372 118.925126,151.913531 C118.549922,151.86446 81.6022136,147.006446 63.1876019,147.006446 C63.1678544,147.006446 63.138233,147.006446 63.0789903,147.006446 C44.3977864,147.006446 7.45995146,151.86446 7.08474757,151.913531 C6.90701942,151.942973 6.72929126,151.962602 6.56143689,151.962602 Z" id="Shape"></path>
                    </g>
                </g>
            </g>
        </g>
    </g>
</svg>