<?xml version="1.0" encoding="UTF-8"?>
<svg width="15px" height="15px" viewBox="0 0 15 15" version="1.1" xmlns="http://www.w3.org/2000/svg" xmlns:xlink="http://www.w3.org/1999/xlink">
    <!-- Generator: Sketch 47.1 (45422) - http://www.bohemiancoding.com/sketch -->
    <title>Mask</title>
    <desc>Created with Sketch.</desc>
    <defs></defs>
    <g id="Board-view" stroke="none" stroke-width="1" fill="none" fill-rule="evenodd">
        <g id="#2-Board_view_task_dragging" transform="translate(-1028.000000, -24.000000)" fill="#FFFFFF">
            <g id="Button-Neutral" transform="translate(1016.000000, 14.000000)">
                <path d="M26.3076923,21.0769231 L24.9230769,21.0769231 L24.9230769,19.6923077 C24.9230769,19.4461538 24.7076923,19.2307692 24.4615385,19.2307692 L23.5384615,19.2307692 C23.2923077,19.2307692 23.0769231,19.4461538 23.0769231,19.6923077 L23.0769231,21.0769231 L21.6923077,21.0769231 C21.4461538,21.0769231 21.2307692,21.2923077 21.2307692,21.5384615 L21.2307692,22.4615385 C21.2307692,22.7076923 21.4461538,22.9230769 21.6923077,22.9230769 L23.0769231,22.9230769 L23.0769231,24.3076923 C23.0769231,24.5538462 23.2923077,24.7692308 23.5384615,24.7692308 L24.4615385,24.7692308 C24.7076923,24.7692308 24.9230769,24.5538462 24.9230769,24.3076923 L24.9230769,22.9230769 L26.3076923,22.9230769 C26.5538462,22.9230769 26.7692308,22.7076923 26.7692308,22.4615385 L26.7692308,21.5384615 C26.7692308,21.2923077 26.5538462,21.0769231 26.3076923,21.0769231 Z M21.8461538,18.4615385 C21.8461538,18.2153846 22.0615385,18 22.3076923,18 L23.0769231,18 L23.0769231,11.2307692 C23.0769231,10.5538462 22.5230769,10 21.8461538,10 L13.2307692,10 C12.5538462,10 12,10.5538462 12,11.2307692 L12,19.8461538 C12,20.5230769 12.5538462,21.0769231 13.2307692,21.0769231 L20,21.0769231 L20,20.3076923 C20,20.0615385 20.2153846,19.8461538 20.4615385,19.8461538 L21.8461538,19.8461538 L21.8461538,18.4615385 Z M16.3076923,12.7692308 C16.3076923,12.9538462 16.1846154,13.0769231 16,13.0769231 L14.1538462,13.0769231 C13.9692308,13.0769231 13.8461538,12.9538462 13.8461538,12.7692308 L13.8461538,12.1538462 C13.8461538,11.9692308 13.9692308,11.8461538 14.1538462,11.8461538 L16,11.8461538 C16.1846154,11.8461538 16.3076923,11.9692308 16.3076923,12.1538462 L16.3076923,12.7692308 Z M20,17.6923077 C20,17.8769231 19.8769231,18 19.6923077,18 L14.1538462,18 C13.9692308,18 13.8461538,17.8769231 13.8461538,17.6923077 L13.8461538,17.0769231 C13.8461538,16.8923077 13.9692308,16.7692308 14.1538462,16.7692308 L19.6923077,16.7692308 C19.8769231,16.7692308 20,16.8923077 20,17.0769231 L20,17.6923077 Z M21.2307692,15.2307692 C21.2307692,15.4153846 21.1076923,15.5384615 20.9230769,15.5384615 L14.1538462,15.5384615 C13.9692308,15.5384615 13.8461538,15.4153846 13.8461538,15.2307692 L13.8461538,14.6153846 C13.8461538,14.4307692 13.9692308,14.3076923 14.1538462,14.3076923 L20.9230769,14.3076923 C21.1076923,14.3076923 21.2307692,14.4307692 21.2307692,14.6153846 L21.2307692,15.2307692 Z" id="Mask"></path>
            </g>
        </g>
    </g>
</svg>