<?xml version="1.0" encoding="UTF-8"?>
<svg width="12px" height="12px" viewBox="0 0 12 12" version="1.1" xmlns="http://www.w3.org/2000/svg" xmlns:xlink="http://www.w3.org/1999/xlink">
    <!-- Generator: Sketch 47.1 (45422) - http://www.bohemiancoding.com/sketch -->
    <title>Shape</title>
    <desc>Created with Sketch.</desc>
    <defs></defs>
    <g id="Board-view" stroke="none" stroke-width="1" fill="none" fill-rule="evenodd">
        <g id="#3-Board_view_quick_task" transform="translate(-459.000000, -227.000000)" fill="#54698D">
            <g id="Input--Icon-to-left" transform="translate(160.000000, 216.000000)">
                <path d="M305,11 C301.702703,11 299,13.7027027 299,17 C299,20.2972973 301.702703,23 305,23 C308.297297,23 311,20.2972973 311,17 C311,13.7027027 308.297297,11 305,11 L305,11 Z M306.243243,17.2162162 L308.189189,19.1621622 C308.243243,19.2702703 308.243243,19.3783784 308.189189,19.4864865 L307.486486,20.1891892 C307.378378,20.2972973 307.216216,20.2972973 307.108108,20.1891892 L305.162162,18.2432432 C305.054054,18.1351351 304.945946,18.1351351 304.837838,18.2432432 L302.891892,20.1891892 C302.783784,20.2972973 302.621622,20.2972973 302.513514,20.1891892 L301.810811,19.4864865 C301.756757,19.3783784 301.756757,19.2702703 301.810811,19.1621622 L303.756757,17.2162162 C303.864865,17.1081081 303.864865,16.9459459 303.756757,16.8378378 L301.810811,14.8918919 C301.702703,14.7837838 301.702703,14.6216216 301.810811,14.5135135 L302.513514,13.8108108 C302.621622,13.7567568 302.72973,13.7567568 302.837838,13.8108108 L304.837838,15.8108108 C304.945946,15.9189189 305.054054,15.9189189 305.162162,15.8108108 L307.108108,13.8648649 C307.216216,13.7567568 307.378378,13.7567568 307.486486,13.8648649 L308.189189,14.5675676 C308.243243,14.6756757 308.243243,14.7837838 308.189189,14.8918919 L306.243243,16.8378378 C306.135135,16.9459459 306.135135,17.1081081 306.243243,17.2162162 L306.243243,17.2162162 Z" id="Shape"></path>
            </g>
        </g>
    </g>
</svg>