<?xml version="1.0" encoding="UTF-8"?>
<svg width="16px" height="16px" viewBox="0 0 16 16" version="1.1" xmlns="http://www.w3.org/2000/svg" xmlns:xlink="http://www.w3.org/1999/xlink">
    <!-- Generator: Sketch 47.1 (45422) - http://www.bohemiancoding.com/sketch -->
    <title>Mask</title>
    <desc>Created with Sketch.</desc>
    <defs>
        <path d="M15.0781698,8.30769231 L13.5397083,8.30769231 L13.5397083,15.0769231 C13.5397083,15.2615385 13.4166313,15.3846154 13.2320159,15.3846154 L10.1550929,15.3846154 C9.97047749,15.3846154 9.84740056,15.2615385 9.84740056,15.0769231 L9.84740056,9.84615385 L6.15509287,9.84615385 L6.15509287,15.0769231 C6.15509287,15.2615385 6.03201595,15.3846154 5.84740056,15.3846154 L2.77047749,15.3846154 C2.5858621,15.3846154 2.46278518,15.2615385 2.46278518,15.0769231 L2.46278518,8.30769231 L0.924323642,8.30769231 C0.801246719,8.30769231 0.678169796,8.24615385 0.647400565,8.12307692 C0.585862103,8 0.616631334,7.87692308 0.708939026,7.78461538 L7.7858621,0.707692308 C7.90893903,0.584615385 8.12432364,0.584615385 8.21663133,0.707692308 L15.2935544,7.78461538 C15.3858621,7.87692308 15.3858621,8 15.3550929,8.12307692 C15.3243236,8.24615385 15.2012467,8.30769231 15.0781698,8.30769231 L15.0781698,8.30769231 Z" id="path-1"></path>
    </defs>
    <g id="Board-view" stroke="none" stroke-width="1" fill="none" fill-rule="evenodd">
        <g id="#2-Board_view_task_dragging" transform="translate(-1192.000000, -22.000000)">
            <g id="Top-nav">
                <g id="icons/utility/home-copy" transform="translate(1192.000000, 22.000000)">
                    <mask id="mask-2" fill="white">
                        <use xlink:href="#path-1"></use>
                    </mask>
                    <use id="Mask" fill="#FFFFFF" xlink:href="#path-1"></use>
                </g>
            </g>
        </g>
    </g>
</svg>