<?xml version="1.0" encoding="UTF-8"?>
<svg width="40px" height="40px" viewBox="0 0 40 40" version="1.1" xmlns="http://www.w3.org/2000/svg" xmlns:xlink="http://www.w3.org/1999/xlink">
    <!-- Generator: Sketch 47.1 (45422) - http://www.bohemiancoding.com/sketch -->
    <title>Mask</title>
    <desc>Created with Sketch.</desc>
    <defs>
        <filter x="-10.8%" y="-1.2%" width="121.7%" height="102.9%" filterUnits="objectBoundingBox" id="filter-1">
            <feOffset dx="0" dy="2" in="SourceAlpha" result="shadowOffsetOuter1"></feOffset>
            <feGaussianBlur stdDeviation="4" in="shadowOffsetOuter1" result="shadowBlurOuter1"></feGaussianBlur>
            <feColorMatrix values="0 0 0 0 0.78964821   0 0 0 0 0.819767244   0 0 0 0 0.872475553  0 0 0 1 0" type="matrix" in="shadowBlurOuter1" result="shadowMatrixOuter1"></feColorMatrix>
            <feMerge>
                <feMergeNode in="shadowMatrixOuter1"></feMergeNode>
                <feMergeNode in="SourceGraphic"></feMergeNode>
            </feMerge>
        </filter>
        <path d="M21.8181818,2.5 L19.0909091,2.5 L19.0909091,1.5 C19.0909091,0.7 18.3818182,0 17.4545455,0 C16.5818182,0 15.8181818,0.65 15.8181818,1.5 L15.8181818,2.5 L8.18181818,2.5 L8.18181818,1.5 C8.18181818,0.7 7.47272727,0 6.54545455,0 C5.67272727,0 4.90909091,0.65 4.90909091,1.5 L4.90909091,2.5 L2.18181818,2.5 C0.981818182,2.5 0,3.4 0,4.5 L0,5.75 C0,6.15 0.381818182,6.5 0.818181818,6.5 L23.1818182,6.5 C23.6181818,6.5 24,6.15 24,5.75 L24,4.5 C24,3.4 23.0181818,2.5 21.8181818,2.5 Z M23.1818182,9 L0.818181818,9 C0.381818182,9 0,9.35 0,9.75 L0,22 C0,23.1 0.981818182,24 2.18181818,24 L21.8181818,24 C23.0181818,24 24,23.1 24,22 L24,9.75 C24,9.35 23.6181818,9 23.1818182,9 Z M13.6363636,20 L13.6363636,20.1 C13.6363636,20.5 13.0909091,21 12.5454545,21 C12,21 11.4545455,20.5 11.4545455,20 L11.4545455,15 L10.6363636,15.8 C10.4727273,15.95 10.3090909,16 10.0909091,16 C9.65454545,16 9.27272727,15.65 9.27272727,15.25 C9.27272727,15.05 9.38181818,14.85 9.54545455,14.7 L11.6727273,12.75 C11.8909091,12.55 12.1636364,12.45 12.4909091,12.45 C13.0909091,12.45 13.6363636,12.9 13.6363636,13.45 L13.6363636,20 Z" id="path-2"></path>
    </defs>
    <g id="Board-view" stroke="none" stroke-width="1" fill="none" fill-rule="evenodd">
        <g id="#2-Board_view_task_dragging" transform="translate(-40.000000, -201.000000)">
            <g id="Side-menu" filter="url(#filter-1)">
                <g id="Nav-3" transform="translate(25.000000, 207.000000)">
                    <g id="icons/utility/dayview" transform="translate(23.000000, 0.000000)">
                        <mask id="mask-3" fill="white">
                            <use xlink:href="#path-2"></use>
                        </mask>
                        <use id="Mask" fill="#54698D" xlink:href="#path-2"></use>
                    </g>
                </g>
            </g>
        </g>
    </g>
</svg>