<?xml version="1.0" encoding="UTF-8"?>
<svg width="20px" height="20px" viewBox="0 0 20 20" version="1.1" xmlns="http://www.w3.org/2000/svg" xmlns:xlink="http://www.w3.org/1999/xlink">
    <!-- Generator: Sketch 47.1 (45422) - http://www.bohemiancoding.com/sketch -->
    <title>pic_holder</title>
    <desc>Created with Sketch.</desc>
    <defs>
        <circle id="path-1" cx="10" cy="10" r="10"></circle>
    </defs>
    <g id="Symbols" stroke="none" stroke-width="1" fill="none" fill-rule="evenodd">
        <g id="pic_holder">
            <mask id="mask-2" fill="white">
                <use xlink:href="#path-1"></use>
            </mask>
            <use id="Mask" fill="#9B9B9B" xlink:href="#path-1"></use>
            <g id="avatar/pic1" mask="url(#mask-2)">
                <rect id="Rectangle" fill="#D8D8E4" x="0" y="0" width="20" height="20"></rect>
                <path d="M10,11.05 C10.5166692,11.05 11.0833302,11.1249993 11.7,11.275 C12.4000035,11.4500009 12.9666645,11.6833319 13.4,11.975 C13.9166692,12.3166684 14.175,12.6999979 14.175,13.125 L14.175,14.175 L5.825,14.175 L5.825,13.125 C5.825,12.6999979 6.08333075,12.3166684 6.6,11.975 C7.0333355,11.6833319 7.5999965,11.4500009 8.3,11.275 C8.91666975,11.1249993 9.48333075,11.05 10,11.05 Z M10,10 C9.62499813,10 9.27916825,9.90625094 8.9625,9.71875 C8.64583175,9.53124906 8.39375094,9.27916825 8.20625,8.9625 C8.01874906,8.64583175 7.925,8.30000188 7.925,7.925 C7.925,7.54999813 8.01874906,7.20000163 8.20625,6.875 C8.39375094,6.54999838 8.64583175,6.29375094 8.9625,6.10625 C9.27916825,5.91874906 9.62499813,5.825 10,5.825 C10.3750019,5.825 10.7208318,5.91874906 11.0375,6.10625 C11.3541683,6.29375094 11.6062491,6.54999838 11.79375,6.875 C11.9812509,7.20000163 12.075,7.54999813 12.075,7.925 C12.075,8.30000188 11.9812509,8.64583175 11.79375,8.9625 C11.6062491,9.27916825 11.3541683,9.53124906 11.0375,9.71875 C10.7208318,9.90625094 10.3750019,10 10,10 Z" id="person---material" fill="#FFFFFF"></path>
            </g>
        </g>
    </g>
</svg>