<?xml version="1.0" encoding="UTF-8"?>
<svg width="14px" height="14px" viewBox="0 0 14 14" version="1.1" xmlns="http://www.w3.org/2000/svg" xmlns:xlink="http://www.w3.org/1999/xlink">
    <!-- Generator: Sketch 47.1 (45422) - http://www.bohemiancoding.com/sketch -->
    <title>Mask</title>
    <desc>Created with Sketch.</desc>
    <defs>
        <path d="M19,16.6923077 L24.0769231,16.6923077 C24.3230769,16.6923077 24.5384615,16.4769231 24.5384615,16.2307692 L24.5384615,15.3076923 C24.5384615,15.0615385 24.3230769,14.8461538 24.0769231,14.8461538 L19,14.8461538 C18.8153846,14.8461538 18.6923077,14.7230769 18.6923077,14.5384615 L18.6923077,9.46153846 C18.6923077,9.21538462 18.4769231,9 18.2307692,9 L17.3076923,9 C17.0615385,9 16.8461538,9.21538462 16.8461538,9.46153846 L16.8461538,14.5384615 C16.8461538,14.7230769 16.7230769,14.8461538 16.5384615,14.8461538 L11.4615385,14.8461538 C11.2153846,14.8461538 11,15.0615385 11,15.3076923 L11,16.2307692 C11,16.4769231 11.2153846,16.6923077 11.4615385,16.6923077 L16.5384615,16.6923077 C16.7230769,16.6923077 16.8461538,16.8153846 16.8461538,17 L16.8461538,22.0769231 C16.8461538,22.3230769 17.0615385,22.5384615 17.3076923,22.5384615 L18.2307692,22.5384615 C18.4769231,22.5384615 18.6923077,22.3230769 18.6923077,22.0769231 L18.6923077,17 C18.6923077,16.8153846 18.8153846,16.6923077 19,16.6923077 Z" id="path-1"></path>
    </defs>
    <g id="Symbols" stroke="none" stroke-width="1" fill="none" fill-rule="evenodd">
        <g id="Button_add_task" transform="translate(-11.000000, -9.000000)">
            <g id="Button-Neutral">
                <mask id="mask-2" fill="white">
                    <use xlink:href="#path-1"></use>
                </mask>
                <use id="Mask" fill="#54698D" xlink:href="#path-1"></use>
            </g>
        </g>
    </g>
</svg>