<?xml version="1.0" encoding="UTF-8"?>
<svg width="16px" height="16px" viewBox="0 0 16 16" version="1.1" xmlns="http://www.w3.org/2000/svg" xmlns:xlink="http://www.w3.org/1999/xlink">
    <!-- Generator: Sketch 47.1 (45422) - http://www.bohemiancoding.com/sketch -->
    <title>Search icon</title>
    <desc>Created with Sketch.</desc>
    <defs></defs>
    <g id="Board-view" stroke="none" stroke-width="1" fill="none" fill-rule="evenodd">
        <g id="#2-Board_view_task_dragging" transform="translate(-143.000000, -23.000000)" fill="#FFFFFF">
            <g id="Top-nav">
                <g id="Search" transform="translate(143.000000, 23.000000)">
                    <path d="M5.94,9.68 C6.6200034,9.68 7.2466638,9.5100017 7.82,9.17 C8.3933362,8.8299983 8.846665,8.3733362 9.18,7.8 C9.513335,7.2266638 9.68,6.6000034 9.68,5.92 C9.68,5.2399966 9.513335,4.6133362 9.18,4.04 C8.846665,3.4666638 8.3933362,3.013335 7.82,2.68 C7.2466638,2.346665 6.6200034,2.18 5.94,2.18 C5.2599966,2.18 4.6333362,2.346665 4.06,2.68 C3.4866638,3.013335 3.0300017,3.4666638 2.69,4.04 C2.3499983,4.6133362 2.18,5.2399966 2.18,5.92 C2.18,6.6000034 2.3499983,7.2266638 2.69,7.8 C3.0300017,8.3733362 3.4866638,8.8299983 4.06,9.17 C4.6333362,9.5100017 5.2599966,9.68 5.94,9.68 Z M10.94,9.68 L15.08,13.82 L13.82,15.08 L9.68,10.92 L9.68,10.26 L9.44,10.04 C8.973331,10.4533354 8.4366697,10.7699989 7.83,10.99 C7.2233303,11.2100011 6.5933366,11.32 5.94,11.32 C4.9533284,11.32 4.0433375,11.0800024 3.21,10.6 C2.3766625,10.1199976 1.7200024,9.4733374 1.24,8.66 C0.7466642,7.8199958 0.5,6.9066716 0.5,5.92 C0.5,4.9333284 0.7433309,4.0233375 1.23,3.19 C1.7166691,2.3566625 2.3766625,1.7000024 3.21,1.22 C4.0433375,0.7399976 4.9533284,0.5 5.94,0.5 C6.9266716,0.5 7.8399958,0.7466642 8.68,1.24 C9.4933374,1.7200024 10.1366643,2.3733292 10.61,3.2 C11.0833357,4.0266708 11.32,4.9333284 11.32,5.92 C11.32,6.58667 11.2100011,7.2233303 10.99,7.83 C10.7699989,8.4366697 10.4533354,8.973331 10.04,9.44 L10.26,9.68 L10.94,9.68 Z" id="Search-icon"></path>
                </g>
            </g>
        </g>
    </g>
</svg>