<?xml version="1.0" encoding="UTF-8"?>
<svg width="40px" height="40px" viewBox="0 0 40 40" version="1.1" xmlns="http://www.w3.org/2000/svg" xmlns:xlink="http://www.w3.org/1999/xlink">
    <!-- Generator: Sketch 47.1 (45422) - http://www.bohemiancoding.com/sketch -->
    <title>Mask</title>
    <desc>Created with Sketch.</desc>
    <defs>
        <filter x="-10.8%" y="-1.2%" width="121.7%" height="102.9%" filterUnits="objectBoundingBox" id="filter-1">
            <feOffset dx="0" dy="2" in="SourceAlpha" result="shadowOffsetOuter1"></feOffset>
            <feGaussianBlur stdDeviation="4" in="shadowOffsetOuter1" result="shadowBlurOuter1"></feGaussianBlur>
            <feColorMatrix values="0 0 0 0 0.78964821   0 0 0 0 0.819767244   0 0 0 0 0.872475553  0 0 0 1 0" type="matrix" in="shadowBlurOuter1" result="shadowMatrixOuter1"></feColorMatrix>
            <feMerge>
                <feMergeNode in="shadowMatrixOuter1"></feMergeNode>
                <feMergeNode in="SourceGraphic"></feMergeNode>
            </feMerge>
        </filter>
        <path d="M12.2644573,8.53556485 C10.163801,8.53556485 8.49404851,10.0920502 8.49404851,12.0502092 C8.49404851,14.0083682 10.163801,15.5648536 12.2644573,15.5648536 C14.3651136,15.5648536 16.0348661,14.0083682 16.0348661,12.0502092 C16.0348661,10.0920502 14.3651136,8.53556485 12.2644573,8.53556485 Z M23.5756837,15.2133891 L21.5827533,13.6569038 C21.6904793,13.1046025 21.7443423,12.5020921 21.7443423,11.9497908 C21.7443423,11.3974895 21.6904793,10.7949791 21.5827533,10.2426778 L23.5756837,8.68619247 C24.2220395,8.18410042 24.4374914,7.28033473 24.0065875,6.57740586 L23.1447798,5.17154812 C22.8216019,4.66945607 22.2291091,4.36820084 21.5827533,4.36820084 C21.3673014,4.36820084 21.1518495,4.41841004 20.9902605,4.46861925 L18.5125633,5.32217573 C17.5430296,4.51882845 16.46577,3.9665272 15.3346473,3.61506276 L14.9037435,1.25523013 C14.7421545,0.451882845 13.9880727,0 13.126265,0 L11.4026496,0 C10.5408419,0 9.78676009,0.451882845 9.62517115,1.25523013 L9.19426728,3.56485356 C8.00928166,3.91631799 6.93202201,4.51882845 5.96248832,5.27196653 L3.48479111,4.41841004 C3.26933918,4.36820084 3.10775023,4.31799163 2.8922983,4.31799163 C2.24594251,4.31799163 1.6534497,4.61924686 1.3302718,5.12133891 L0.468464079,6.52719665 C0.0375602166,7.23012552 0.199149165,8.13389121 0.899367941,8.63598326 L2.8922983,10.1924686 C2.78457234,10.7447699 2.73070935,11.3472803 2.73070935,11.8995816 C2.73070935,12.5020921 2.78457234,13.0543933 2.8922983,13.6066946 L0.899367941,15.1631799 C0.253012148,15.665272 0.0375602166,16.5690377 0.468464079,17.2719665 L1.3302718,18.6778243 C1.6534497,19.1799163 2.24594251,19.4811715 2.8922983,19.4811715 C3.10775023,19.4811715 3.32320216,19.4309623 3.48479111,19.3807531 L5.96248832,18.5271967 C6.93202201,19.3305439 8.00928166,19.8828452 9.1404043,20.2343096 L9.57130816,22.6443515 C9.73289711,23.4476987 10.4331159,24 11.3487866,24 L13.072402,24 C13.9342098,24 14.6882915,23.3974895 14.8498805,22.5941423 L15.2807843,20.1841004 C16.5196329,19.7824268 17.6507556,19.1799163 18.6202893,18.3263598 L20.9363975,19.1799163 C21.1518495,19.2301255 21.3673014,19.2803347 21.5827533,19.2803347 C22.2291091,19.2803347 22.8216019,18.9790795 23.1447798,18.4769874 L23.9527246,17.1715481 C24.4374914,16.6192469 24.2220395,15.7154812 23.5756837,15.2133891 L23.5756837,15.2133891 Z M12.2644573,17.5732218 C8.97881535,17.5732218 6.3395292,15.1129707 6.3395292,12.0502092 C6.3395292,8.9874477 8.97881535,6.52719665 12.2644573,6.52719665 C15.5500992,6.52719665 18.1893854,8.9874477 18.1893854,12.0502092 C18.1893854,15.1129707 15.5500992,17.5732218 12.2644573,17.5732218 Z" id="path-2"></path>
    </defs>
    <g id="Board-view" stroke="none" stroke-width="1" fill="none" fill-rule="evenodd">
        <g id="#2-Board_view_task_dragging" transform="translate(-40.000000, -324.000000)">
            <g id="Side-menu" filter="url(#filter-1)">
                <g id="settings" transform="translate(35.000000, 330.000000)">
                    <g id="icons/utility/settings" transform="translate(13.000000, 0.000000)">
                        <mask id="mask-3" fill="white">
                            <use xlink:href="#path-2"></use>
                        </mask>
                        <use id="Mask" fill="#54698D" xlink:href="#path-2"></use>
                    </g>
                </g>
            </g>
        </g>
    </g>
</svg>