<?xml version="1.0" encoding="UTF-8"?>
<svg width="48px" height="34px" viewBox="0 0 48 34" version="1.1" xmlns="http://www.w3.org/2000/svg" xmlns:xlink="http://www.w3.org/1999/xlink">
    <!-- Generator: Sketch 48.2 (47327) - http://www.bohemiancoding.com/sketch -->
    <title>Shape</title>
    <desc>Created with Sketch.</desc>
    <defs></defs>
    <g id="Page-1" stroke="none" stroke-width="1" fill="none" fill-rule="evenodd">
        <g id="list" fill="#54698D" fill-rule="nonzero">
            <path d="M6,1.5 C6,0.7 5.3,0 4.5,0 L1.5,0 C0.7,0 0,0.7 0,1.5 L0,4.5 C0,5.3 0.7,6 1.5,6 L4.5,6 C5.3,6 6,5.3 6,4.5 L6,1.5 Z M48,1.5 C48,0.7 47.3,0 46.5,0 L11.5,0 C10.7,0 10,0.7 10,1.5 L10,4.5 C10,5.3 10.7,6 11.5,6 L46.5,6 C47.3,6 48,5.3 48,4.5 L48,1.5 Z M6,15.5 C6,14.7 5.3,14 4.5,14 L1.5,14 C0.7,14 0,14.7 0,15.5 L0,18.5 C0,19.3 0.7,20 1.5,20 L4.5,20 C5.3,20 6,19.3 6,18.5 L6,15.5 Z M44,15.5 C44,14.7 43.3,14 42.5,14 L11.5,14 C10.7,14 10,14.7 10,15.5 L10,18.5 C10,19.3 10.7,20 11.5,20 L42.5,20 C43.3,20 44,19.3 44,18.5 L44,15.5 Z M6,29.5 C6,28.7 5.3,28 4.5,28 L1.5,28 C0.7,28 0,28.7 0,29.5 L0,32.5 C0,33.3 0.7,34 1.5,34 L4.5,34 C5.3,34 6,33.3 6,32.5 L6,29.5 Z M48,29.5 C48,28.7 47.3,28 46.5,28 L11.5,28 C10.7,28 10,28.7 10,29.5 L10,32.5 C10,33.3 10.7,34 11.5,34 L46.5,34 C47.3,34 48,33.3 48,32.5 L48,29.5 Z" id="Shape"></path>
        </g>
    </g>
</svg>